<svg width="48" height="48" viewBox="0 0 48 48" fill="#0A3871" xmlns="http://www.w3.org/2000/svg">
    <rect width="48" height="48" fill="white" />
    <path d="M29.8897 23.7397C29.8572 23.9483 29.7778 24.1469 29.6576 24.3206C29.5374 24.4942 29.3794 24.6384 29.1956 24.7423C28.8253 24.9814 28.5014 25.101 28.1737 25.2205C27.4756 25.4616 26.7409 25.7026 25.9639 25.9822C25.1444 26.2618 24.4097 26.5414 23.7541 26.7439C22.9366 27.0235 22.1595 27.2645 21.421 27.5441C20.8654 27.7819 20.3434 28.0917 19.8688 28.4658C19.4272 28.8658 19.042 29.3237 18.7234 29.8271C18.3956 30.3863 18.1893 31.1074 18.1893 31.9481C18.1893 33.6315 18.598 34.9118 19.4176 35.7121C20.2351 36.5547 21.7507 36.9539 23.9971 36.9539C26.2879 36.9539 27.842 36.5142 28.6634 35.633C29.479 34.7518 29.8878 33.5119 29.8878 31.9115V23.7397H29.8897ZM23.999 6C28.0097 6 30.9541 6.76165 32.8342 8.32352C34.7161 9.84681 35.6571 11.8059 35.6571 14.1275V33.9111C35.6571 34.7113 35.4951 35.5925 35.2097 36.5527C34.9205 37.5169 34.3498 38.3962 33.4492 39.1944C32.5912 39.9985 31.4053 40.6792 29.8917 41.1997C28.378 41.7204 26.4151 42 24.001 42C21.5907 42 19.6239 41.7204 18.1121 41.1997C16.6004 40.6792 15.4126 39.9985 14.5546 39.1944C13.7563 38.4751 13.1516 37.5667 12.796 36.5527C12.5068 35.5944 12.3429 34.7132 12.3429 33.913V30.7507C12.3429 29.0674 12.7922 27.5055 13.6927 26.1422C14.5931 24.7424 15.8599 23.7821 17.497 23.1805C18.3146 22.9009 19.2556 22.6213 20.318 22.2607C21.3824 21.8982 22.362 21.5377 23.3453 21.2195C24.3287 20.8975 25.1868 20.5755 25.9215 20.2939C26.3648 20.1166 26.8151 19.957 27.2712 19.8157L28.0078 19.4552C28.297 19.2951 28.5805 19.0541 28.8678 18.734C29.1532 18.4159 29.398 18.0553 29.6044 17.6542C29.8224 17.2199 29.9347 16.7402 29.9322 16.2543V14.972C29.9352 14.5021 29.8366 14.037 29.6429 13.6088C29.481 13.1267 29.1532 12.6871 28.7039 12.2879C28.2546 11.8869 27.6395 11.5668 26.9049 11.3238C26.1682 11.0867 25.1887 10.9652 24.082 10.9652C21.7912 10.9652 20.2775 11.4087 19.4599 12.3265C18.7658 13.1287 18.3571 14.1294 18.2761 15.2497C18.2761 15.4907 18.0716 15.6508 17.8249 15.6508L12.8365 15.7318C12.718 15.7323 12.6041 15.6859 12.5196 15.6029C12.4351 15.5198 12.3868 15.4067 12.3853 15.2883V14.1313C12.3853 13.0072 12.5917 11.9659 13.0409 10.9652C13.4921 9.96251 14.1882 9.12373 15.1273 8.40065C16.0682 7.68142 17.2965 7.08173 18.7678 6.68066C20.2004 6.19861 21.9589 6 24.0028 6H23.999Z" />
</svg>
