<svg width="1920" height="1080" viewBox="0 0 1920 1080" fill="none" xmlns="http://www.w3.org/2000/svg">
<circle cx="38" cy="50" r="14" fill="#FF8D29"/>
<circle cx="1107.63" cy="92" r="14" fill="#FF8D29"/>
<circle cx="116.865" cy="139.204" r="14" fill="#FF8D29"/>
<circle cx="1244.86" cy="185.728" r="14" fill="#FF8D29"/>
<circle cx="1130.5" cy="181.204" r="14" fill="#FF8D29"/>
<circle cx="225.303" cy="111.204" r="14" fill="#FF8D29"/>
<circle cx="1294.94" cy="153.204" r="14" fill="#FF8D29"/>
<circle cx="1359.22" cy="78" r="14" fill="#FF8D29"/>
<circle cx="116.865" cy="352.116" r="14" fill="#FF8D29"/>
<circle cx="1186.5" cy="394.116" r="14" fill="#FF8D29"/>
<circle cx="1082.03" cy="311.728" r="14" fill="#FF8D29"/>
<circle cx="161.226" cy="227.728" r="14" fill="#FF8D29"/>
<circle cx="1230.86" cy="269.728" r="14" fill="#FF8D29"/>
<circle cx="706.385" cy="241.728" r="14" fill="#FF8D29"/>
<circle cx="1776.02" cy="283.728" r="14" fill="#FF8D29"/>
<circle cx="1832.02" cy="255.728" r="14" fill="#FF8D29"/>
<circle cx="1004.34" cy="199.728" r="14" fill="#FF8D29"/>
<circle cx="1004.34" cy="134" r="14" fill="#FF8D29"/>
<circle cx="806.085" cy="376.799" r="14" fill="#FF8D29"/>
<circle cx="1875.72" cy="418.799" r="14" fill="#FF8D29"/>
<circle cx="1804.02" cy="498" r="14" fill="#FF8D29"/>
<circle cx="1734.02" cy="486.094" r="14" fill="#FF8D29"/>
<circle cx="1769.17" cy="362.799" r="14" fill="#FF8D29"/>
<circle cx="467.613" cy="199.728" r="14" fill="#FF8D29"/>
<circle cx="1537.25" cy="241.728" r="14" fill="#FF8D29"/>
<circle cx="974" cy="269.728" r="14" fill="#FF8D29"/>
<circle cx="862.085" cy="227.728" r="14" fill="#FF8D29"/>
<circle cx="778.085" cy="554" r="14" fill="#FF8D29"/>
<circle cx="1847.72" cy="596" r="14" fill="#FF8D29"/>
<circle cx="1790.02" cy="694.894" r="14" fill="#FF8D29"/>
<circle cx="211.303" cy="404.799" r="14" fill="#FF8D29"/>
<circle cx="1280.94" cy="446.799" r="14" fill="#FF8D29"/>
<circle cx="239.303" cy="556.744" r="14" fill="#FF8D29"/>
<circle cx="1308.94" cy="598.744" r="14" fill="#FF8D29"/>
<circle cx="439.613" cy="680.894" r="14" fill="#FF8D29"/>
<circle cx="650.385" cy="596" r="14" fill="#FF8D29"/>
<circle cx="1509.25" cy="722.894" r="14" fill="#FF8D29"/>
<circle cx="161.226" cy="612.744" r="14" fill="#FF8D29"/>
<circle cx="261.586" cy="694.894" r="14" fill="#FF8D29"/>
<circle cx="1230.86" cy="654.744" r="14" fill="#FF8D29"/>
<circle cx="383.613" cy="761.797" r="14" fill="#FF8D29"/>
<circle cx="538.194" cy="724.4" r="14" fill="#FF8D29"/>
<circle cx="482.195" cy="823.603" r="14" fill="#FF8D29"/>
<circle cx="1404.16" cy="780.4" r="14" fill="#FF8D29"/>
<circle cx="211.303" cy="803.797" r="14" fill="#FF8D29"/>
<circle cx="1280.94" cy="845.797" r="14" fill="#FF8D29"/>
<circle cx="1294.94" cy="752.4" r="14" fill="#FF8D29"/>
<circle cx="1040.03" cy="975.693" r="14" fill="#FF8D29"/>
<circle cx="985.04" cy="1031.69" r="14" fill="#FF8D29"/>
<circle cx="253.303" cy="975.693" r="14" fill="#FF8D29"/>
<circle cx="175.226" cy="1031.69" r="14" fill="#FF8D29"/>
<circle cx="1345.22" cy="975.693" r="14" fill="#FF8D29"/>
<circle cx="88.8646" cy="680.894" r="14" fill="#FF8D29"/>
<circle cx="1158.5" cy="722.894" r="14" fill="#FF8D29"/>
<circle cx="348.529" cy="584.744" r="14" fill="#FF8D29"/>
<circle cx="1418.16" cy="626.744" r="14" fill="#FF8D29"/>
<circle cx="102.865" cy="851.603" r="14" fill="#FF8D29"/>
<circle cx="1068.03" cy="851.603" r="14" fill="#FF8D29"/>
<circle cx="1068.03" cy="682.744" r="14" fill="#FF8D29"/>
<circle cx="116.865" cy="961.693" r="14" fill="#FF8D29"/>
<circle cx="1186.5" cy="1003.69" r="14" fill="#FF8D29"/>
<circle cx="1186.5" cy="907.603" r="14" fill="#FF8D29"/>
<circle cx="848.085" cy="961.693" r="14" fill="#FF8D29"/>
<circle cx="778.085" cy="1045.69" r="14" fill="#FF8D29"/>
<circle cx="289.586" cy="366.116" r="14" fill="#FF8D29"/>
<circle cx="289.586" cy="283.728" r="14" fill="#FF8D29"/>
<circle cx="1359.22" cy="408.116" r="14" fill="#FF8D29"/>
<circle cx="1493.48" cy="352.116" r="14" fill="#FF8D29"/>
<circle cx="1082.03" cy="432.799" r="14" fill="#FF8D29"/>
<circle cx="946" cy="380.116" r="14" fill="#FF8D29"/>
<circle cx="929.04" cy="626.744" r="14" fill="#FF8D29"/>
<circle cx="566.194" cy="851.603" r="14" fill="#FF8D29"/>
<circle cx="706.385" cy="921.603" r="14" fill="#FF8D29"/>
<circle cx="622.194" cy="947.693" r="14" fill="#FF8D29"/>
<circle cx="1663.83" cy="924.372" r="14" fill="#FF8D29"/>
<circle cx="1846.02" cy="907.603" r="14" fill="#FF8D29"/>
<circle cx="1759.01" cy="989.693" r="14" fill="#FF8D29"/>
<circle cx="1521.48" cy="865.603" r="14" fill="#FF8D29"/>
<circle cx="633.379" cy="694.894" r="14" fill="#FF8D29"/>
<circle cx="1649.83" cy="736.894" r="14" fill="#FF8D29"/>
<circle cx="1731.01" cy="640.744" r="14" fill="#FF8D29"/>
<circle cx="692.385" cy="803.797" r="14" fill="#FF8D29"/>
<circle cx="1762.02" cy="845.797" r="14" fill="#FF8D29"/>
<circle cx="1846.02" cy="803.797" r="14" fill="#FF8D29"/>
<circle cx="1635.83" cy="817.797" r="14" fill="#FF8D29"/>
<circle cx="957.04" cy="910.372" r="14" fill="#FF8D29"/>
<circle cx="495.613" cy="125.204" r="14" fill="#FF8D29"/>
<circle cx="1565.25" cy="167.204" r="14" fill="#FF8D29"/>
<circle cx="664.385" cy="78" r="14" fill="#FF8D29"/>
<circle cx="1734.02" cy="120" r="14" fill="#FF8D29"/>
<circle cx="1818.02" cy="97.2042" r="14" fill="#FF8D29"/>
<circle cx="1629.25" cy="92" r="14" fill="#FF8D29"/>
<circle cx="633.379" cy="171.728" r="14" fill="#FF8D29"/>
<circle cx="1703.01" cy="213.728" r="14" fill="#FF8D29"/>
<circle cx="834.085" cy="111.204" r="14" fill="#FF8D29"/>
<circle cx="1903.72" cy="153.204" r="14" fill="#FF8D29"/>
<circle cx="362.529" cy="171.728" r="14" fill="#FF8D29"/>
<circle cx="376.529" cy="78" r="14" fill="#FF8D29"/>
<circle cx="1432.16" cy="213.728" r="14" fill="#FF8D29"/>
<circle cx="130.865" cy="486.094" r="14" fill="#FF8D29"/>
<circle cx="1200.5" cy="528.094" r="14" fill="#FF8D29"/>
<circle cx="411.613" cy="432.799" r="14" fill="#FF8D29"/>
<circle cx="308.907" cy="474.799" r="14" fill="#FF8D29"/>
<circle cx="734.385" cy="458.094" r="14" fill="#FF8D29"/>
<circle cx="1481.25" cy="474.799" r="14" fill="#FF8D29"/>
<circle cx="1493.48" cy="568" r="14" fill="#FF8D29"/>
<circle cx="559.622" cy="472.094" r="14" fill="#FF8D29"/>
<circle cx="1629.25" cy="514.094" r="14" fill="#FF8D29"/>
<circle cx="1032.34" cy="526" r="14" fill="#FF8D29"/>
<circle cx="880.06" cy="502.799" r="14" fill="#FF8D29"/>
<circle cx="334.529" cy="851.603" r="14" fill="#FF8D29"/>
<circle cx="383.613" cy="975.693" r="14" fill="#FF8D29"/>
<circle cx="453.613" cy="1031.69" r="14" fill="#FF8D29"/>
<circle cx="1404.16" cy="893.603" r="14" fill="#FF8D29"/>
<circle cx="495.613" cy="961.693" r="14" fill="#FF8D29"/>
<circle cx="594.194" cy="1045.69" r="14" fill="#FF8D29"/>
<circle cx="1593.25" cy="947.693" r="14" fill="#FF8D29"/>
<circle cx="1657.25" cy="1017.69" r="14" fill="#FF8D29"/>
<circle cx="1495.25" cy="1031.69" r="14" fill="#FF8D29"/>
<circle cx="509.613" cy="584.744" r="14" fill="#FF8D29"/>
<circle cx="1579.25" cy="626.744" r="14" fill="#FF8D29"/>
<circle cx="943.04" cy="775.797" r="14" fill="#FF8D29"/>
<circle cx="792.085" cy="708.894" r="14" fill="#FF8D29"/>
<circle cx="848.085" cy="845.797" r="14" fill="#FF8D29"/>
<circle cx="559.622" cy="338.116" r="14" fill="#FF8D29"/>
<circle cx="633.379" cy="352.116" r="14" fill="#FF8D29"/>
<circle cx="411.613" cy="338.116" r="14" fill="#FF8D29"/>
<circle cx="1629.25" cy="380.116" r="14" fill="#FF8D29"/>
</svg>
